<?xml version="1.0" encoding="iso-8859-1"?>
<!-- Generator: Adobe Illustrator 17.1.0, SVG Export Plug-In . SVG Version: 6.00 Build 0)  -->
<!DOCTYPE svg PUBLIC "-//W3C//DTD SVG 1.1//EN" "http://www.w3.org/Graphics/SVG/1.1/DTD/svg11.dtd">
<svg version="1.1" id="Capa_1" xmlns="http://www.w3.org/2000/svg" xmlns:xlink="http://www.w3.org/1999/xlink" x="0px" y="0px"
	 viewBox="0 0 347.886 347.886" style="enable-background:new 0 0 347.886 347.886;" xml:space="preserve">
<path d="M282.591,173.85c0,36.114-12,70.735-32.923,94.987c-1.78,2.063-4.292,3.121-6.818,3.121c-2.083,0-4.175-0.718-5.875-2.186
	c-3.764-3.247-4.183-8.93-0.936-12.693c18.146-21.032,28.552-51.368,28.552-83.229c0-33.063-11.064-64.141-30.357-85.265
	c-3.352-3.67-3.094-9.363,0.576-12.715c3.671-3.353,9.365-3.092,12.715,0.576C269.81,100.847,282.591,136.349,282.591,173.85z
	 M221.656,173.943c0,30.183-22.295,55.255-51.282,59.612v85.705c0,4.971-4.029,9-9,9h-17.531c-2.635,0-5.138-1.155-6.848-3.16
	l-66.801-78.338H41.675C18.695,246.761,0,228.067,0,205.089v-62.291c0-22.978,18.695-41.672,41.675-41.672h28.517l66.803-78.339
	c1.71-2.005,4.213-3.16,6.848-3.16h17.531c4.971,0,9,4.029,9,9v85.705C199.361,118.688,221.656,143.76,221.656,173.943z
	 M65.347,119.126H41.675C28.621,119.126,18,129.745,18,142.798v62.291c0,13.053,10.621,23.673,23.675,23.673h23.672V119.126z
	 M152.374,37.626h-4.378l-64.649,75.814v121.004l64.649,75.815h4.378V37.626z M203.656,173.943
	c0-20.227-14.276-37.182-33.282-41.318v82.637C189.379,211.125,203.656,194.17,203.656,173.943z M293.735,23.823
	c-3.354-3.669-9.044-3.928-12.716-0.575c-3.67,3.352-3.927,9.045-0.575,12.715c31.422,34.399,49.442,84.893,49.442,138.536
	c0,51.678-16.941,100.958-46.48,135.204c-3.246,3.764-2.827,9.447,0.938,12.693c1.7,1.467,3.792,2.185,5.874,2.185
	c2.526,0,5.039-1.058,6.819-3.122c32.315-37.466,50.85-91.031,50.85-146.96C347.886,116.418,328.149,61.499,293.735,23.823z" stroke="#ed5a65"/>
<g>
</g>
<g>
</g>
<g>
</g>
<g>
</g>
<g>
</g>
<g>
</g>
<g>
</g>
<g>
</g>
<g>
</g>
<g>
</g>
<g>
</g>
<g>
</g>
<g>
</g>
<g>
</g>
<g>
</g>
</svg>
